<?xml version="1.0" encoding="utf-8"?>
<!-- Generator: Adobe Illustrator 16.0.0, SVG Export Plug-In . SVG Version: 6.00 Build 0)  -->
<!DOCTYPE svg PUBLIC "-//W3C//DTD SVG 1.1//EN" "http://www.w3.org/Graphics/SVG/1.1/DTD/svg11.dtd">
<svg version="1.1" id="Layer_1" xmlns="http://www.w3.org/2000/svg" xmlns:xlink="http://www.w3.org/1999/xlink" x="0px" y="0px"
	 width="70px" height="70px" viewBox="0 0 70 70" enable-background="new 0 0 70 70" xml:space="preserve">
<path fill="#707071" d="M70,55.672c0-11.354,0-22.707,0-34.06c0-3.246-3.309-4.798-5.746-6.49
	c-4.459-3.099-10.104-4.465-15.475-3.978c-4.918,0.446-10.061,2.776-13.877,6.106c-7.314-5.596-16.164-8.079-25.149-4.312
	C6.71,14.213,0,17.265,0,21.292c0,11.678,0,23.355,0,35.033c0,2.23,3.085,3.557,4.669,1.855c8.098-8.689,19.935-7.379,28.42,0.021
	c0.134,0.116,0.326,0.213,0.476,0.297c0.022,0.012,0.069,0.021,0.092,0.032c0.108,0.058,0.23,0.108,0.344,0.147
	c0.064,0.024,0.137,0.043,0.203,0.062c0.068,0.021,0.14,0.038,0.21,0.052c0.105,0.022,0.214,0.037,0.32,0.049
	c0.021,0.002,0.043,0.004,0.062,0.004c0.528,0.041,1.064-0.053,1.532-0.289c0.034-0.016,0.071-0.029,0.104-0.047
	c0.004-0.002,0.008-0.004,0.012-0.006c0.385-0.201,0.712-0.483,0.941-0.832c8.075-8.119,19.516-6.72,27.829,0.531
	c0.007,0.006,0.015,0.01,0.021,0.016c0.14,0.123,0.289,0.23,0.451,0.32c0.123,0.069,0.246,0.117,0.369,0.165
	c0.02,0.007,0.036,0.019,0.057,0.024c0.152,0.055,0.306,0.091,0.46,0.115c0.005,0,0.01,0.002,0.015,0.002
	c0.105,0.017,0.213,0.023,0.318,0.025c1.109,0.062,2.398-0.484,2.789-1.64C69.932,56.746,70,56.203,70,55.672z M12.758,47.484
	C10.314,48.125,8,49.276,6,50.743C6,42.473,6,34.2,6,25.93c0-1.359,0-2.719,0-4.078c0-0.541,0.8-1.053,1.437-1.524
	C15.643,14.254,25,15.81,32,21.972c0,9.707,0,19.415,0,29.122C27,47.312,19.989,45.588,12.758,47.484z M44.752,47.484
	C42.309,48.125,40,49.276,38,50.743c0-9.633,0-19.267,0-28.899c3-3.124,7.557-5.148,12.016-5.553c2.317-0.211,4.479,0.263,6.68,0.93
	c1.201,0.416,2.082,0.942,3.181,1.58C60.586,19.178,64,22.591,64,20.79c0,1.485,0,2.971,0,4.456c0,8.617,0,17.235,0,25.854
	C59,47.313,51.988,45.588,44.752,47.484z"/>
</svg>
